<svg class="svg-icon" style="width: 1em; height: 1em;vertical-align: middle;fill: currentColor;overflow: hidden;" viewBox="0 0 1024 1024" version="1.1" xmlns="http://www.w3.org/2000/svg"><path d="M703.6 844c-52.4 18.4-133 29.8-192.2 29.8-59.2 0-139.8-11.4-192.2-29.8 0 0-52.2 47.8-124.6 72.4-4.6 1.6-3 8.4 1.8 7.8 45.2-5.2 80.4-13 122.8-24 46 18 133.4 27.8 192.2 27.8 58.8 0 148.2-7.6 192.2-27.8 43 11.2 77.6 19.2 124 24.2 4.8 0.6 6.4-6.2 1.8-7.8-71.4-24.8-125.8-72.6-125.8-72.6z m187.4-318l-372.4-171c-4.2-2-9.2-2-13.4 0L133 526c-12.4 5.8-21 18.2-21 32.8 0 4.8 1 9.2 2.6 13.4L224 844c55 0 113.4-44 113.4-44 36 18 106.2 34.2 158.6 37.2 5.6 0.4 11 0.4 16 0.4s10.4-0.2 16-0.4c52.4-3 122.6-19 158.6-37.2 0 0 58.4 44 113.4 44l109.4-271.8c1.6-4.2 2.6-8.6 2.6-13.4 0-14.6-8.6-27-21-32.8zM424 576c-13.2 0-24-19.6-24-44s10.8-44 24-44 24 19.6 24 44-10.8 44-24 44z m176 0c-13.2 0-24-19.6-24-44s10.8-44 24-44 24 19.6 24 44-10.8 44-24 44z" fill="" /><path d="M783.8 254v-0.2C772.6 200.6 748.8 160 704 160h-69.2l-4-16c-7.2-28.2-32.8-48-62-48h-114c-29.2 0-54.8 19.8-62 48.2l-4 15.8H320c-45.8 0-70.2 41.4-79.6 94L204 447.6c-1.2 6.4 5.2 11.4 11.2 8.8l50.6-23.2c2.4-1 4-3.2 4.6-5.8l32.4-171.2c5-21.4 14.6-32 32.2-32h354.2c17.8 0 26.2 10 32.2 32l32.4 171.2c0.4 2.6 2.2 4.8 4.6 5.8l50.8 23.4c6 2.8 12.4-2.4 11.2-8.8L783.8 254z" fill="" /></svg>